<?xml version="1.0" encoding="UTF-8"?>
<svg width="140px" height="26px" viewBox="0 0 140 26" version="1.1" xmlns="http://www.w3.org/2000/svg" xmlns:xlink="http://www.w3.org/1999/xlink">
    <!-- Generator: Sketch 52.5 (67469) - http://www.bohemiancoding.com/sketch -->
    <title>genexus_logo</title>
    <desc>Created with Sketch.</desc>
    <g id="Page-1" stroke="none" stroke-width="1" fill="none" fill-rule="evenodd">
        <g id="genexus_logo" fill="#A6093D" fill-rule="nonzero">
            <path d="M113.425706,6.4041247 L111.575577,6.4041247 C110.802565,6.4041247 110.390137,7.1401585 110.28055,7.7490092 L107.83043,21.2306167 C107.790178,21.4465226 107.644764,21.5808279 107.407254,21.5808279 L103.282767,21.5808279 C101.40229,21.5808279 101.064045,20.4144067 101.340753,18.8658258 L103.333556,7.7882834 C103.466536,7.0555055 102.937777,6.4041247 102.198906,6.4041247 L100.355521,6.4041247 C99.585459,6.4041247 99.181883,7.1232686 99.067448,7.742294 L97.248509,17.5284705 C96.869168,19.5117122 96.896565,21.780658 98.229948,23.4586603 C99.259858,24.7443284 100.961412,25.3863485 102.665074,25.3863485 L110.142722,25.3863485 C111.082855,25.3898079 111.49739,24.7803467 111.633321,23.9934396 C112.566499,18.5866336 113.546884,13.1863393 114.568154,7.7949986 C114.698183,7.1010879 114.169635,6.4041247 113.425706,6.4041247 Z M128.445703,6.4427884 C124.774949,5.9405679 120.088404,5.6023627 117.468214,8.6781578 C115.910388,10.7694542 116.407535,13.0691274 117.90003,14.7499786 C119.562596,16.6206888 122.274672,17.2340163 123.985077,19.0389983 C124.683064,19.7791019 124.343765,20.9923265 123.503314,21.4807094 C121.923992,22.4869818 118.347652,21.9756042 116.644201,21.679115 C115.785205,21.5761476 114.96309,21.5446062 114.598501,22.3109604 C114.380591,22.7694299 114.228222,23.6190127 114.284913,24.0982385 C114.37195,24.8403771 115.227996,25.113261 115.871189,25.2369847 C117.258944,25.5035604 118.73184,25.6317609 120.152049,25.6317609 C123.396677,25.6317609 126.660061,25.0200613 128.247392,21.9735692 C128.779944,20.4457446 128.911027,18.630181 127.937597,17.229743 C126.908319,15.7894203 125.277154,14.9555064 123.795617,14.023916 C122.892365,13.4569848 121.369733,12.7830163 120.924008,11.8414547 C120.718742,11.3288562 120.937706,10.7849197 121.350134,10.4355224 C122.791629,9.2111057 126.951521,9.97339 128.658766,10.1121722 C129.278566,10.1663013 129.680246,9.9090863 130.001632,9.4194824 C130.257898,8.8761564 130.296885,8.3139055 130.310584,7.7374101 C130.33503,6.7738713 129.569816,6.595815 128.445703,6.4427884 Z M71.84406,13.7044322 C71.82151,13.9008028 71.658394,14.065225 71.443434,14.065225 L64.721094,14.065225 C64.418254,14.0648181 64.305716,13.8391444 64.411089,13.5715513 C65.292845,11.1418462 68.003024,8.9044419 70.754298,10.3097638 C72.018978,10.989837 71.991792,12.5255978 71.84406,13.7044322 Z M76.147259,13.6979204 C76.432818,10.8241938 75.330412,7.8407845 72.351323,6.7014278 C68.851483,5.3982594 64.512878,6.5526745 62.194685,9.3488703 C61.043175,10.7368953 60.336548,12.4551893 59.9047314,14.2428743 C59.3974686,16.3516712 58.9194992,19.1340294 59.6651145,21.2326516 C60.650347,23.9993409 63.535444,25.3863485 66.473438,25.3863485 L72.727713,25.3863485 C73.13719,25.3863485 73.487027,25.0341023 73.487027,24.6442099 C73.487027,22.8890837 72.083466,21.679115 70.339974,21.679115 L67.659088,21.679115 C66.712001,21.679115 65.651533,21.651847 64.837426,21.2812864 C63.454518,20.6504585 63.351885,19.1385063 63.5287,17.8607744 C63.55694,17.6324554 63.736916,17.4759694 63.981169,17.4759694 L74.362672,17.4759694 C75.085948,17.4623353 75.526826,16.9780223 75.705749,16.2912338 C75.920498,15.439616 76.060432,14.5709049 76.147259,13.6979204 Z M90.033659,12.7807779 L99.193473,1.8835302 C99.849311,1.1047629 99.424239,0.1752074 98.388217,0.1752074 L96.632713,0.1752074 C96.138305,0.1752074 95.700378,0.4082067 95.39543,0.7681857 L86.010961,11.8414547 L87.523899,8.2640497 C87.609672,8.0579114 87.603982,7.8385461 87.506196,7.6391231 L84.206564,0.8180414 C84.002352,0.3968111 83.638817,0.1265726 83.145253,0.1265726 L66.001369,0.1265726 C75.800373,0.8180414 79.667752,1.8562621 82.196269,6.0561519 C83.407209,8.1089882 84.359143,10.2953158 85.392214,12.4336191 L76.067176,23.3632222 C75.821869,23.6515716 75.595107,23.9588459 75.595107,24.3460928 C75.595107,24.8369177 75.941994,25.3863485 76.507,25.3863485 L78.73921,25.3863485 C79.27113,25.3971336 79.717698,25.1175344 80.081233,24.6932517 L87.247191,16.1911153 L91.100871,24.0925407 C91.436166,24.7815676 91.733106,25.3863485 92.561122,25.3863485 L94.208936,25.3863485 C94.77584,25.3863485 95.231259,25.1667796 95.447273,24.6442099 C95.606596,24.1914382 95.493215,23.9144844 95.293851,23.5066847 L90.033659,12.7807779 Z M20.4653068,0 L12.971009,0 C9.489504,0 6.5593075,1.3338959 4.4463796,3.5190025 C3.0586247,4.9585112 2.0215492,6.7649176 1.4146041,8.8047304 C0.8361094,10.7529713 0.4951242,12.8656345 0.2232634,14.8653591 C-0.0601885,16.972121 -0.2528092,19.232927 0.8038655,21.1516614 C2.2590587,23.7905572 4.8187657,25.3863485 8.1106004,25.3863485 L16.8177348,25.3863485 C17.7932728,25.3863485 18.1665019,24.7465668 18.3110729,24.0036143 L20.3618311,13.4722468 C20.4849061,12.6440307 20.1399168,11.8371814 19.1664863,11.8371814 L12.1958894,11.8371814 C11.7305648,11.8371814 11.4199268,12.135502 11.4199268,12.5302782 C11.4199268,13.967752 12.7120036,15.1567609 14.1086097,15.4046152 C15.4514759,15.6024103 15.3488432,16.1972201 15.2453675,16.9902318 L14.5113431,21.2100639 C14.4584462,21.3958529 14.3157719,21.5075705 14.0978617,21.5075705 C8.342209,21.5075705 3.569681,22.367328 4.6312028,14.811637 C5.41981,10.6915164 5.4101158,6.611891 9.9723204,4.6054511 C12.3592167,3.5432182 15.4622239,3.9123543 18.0366831,3.9123543 C18.8301375,3.9123543 19.4663762,3.7367399 19.9706886,3.404843 C20.7057667,2.9209369 21.1613971,2.1004536 21.4180843,1.001999 C21.572771,0.3361703 21.135897,0 20.4653068,0 Z M34.9175568,13.7044322 C34.8960608,13.9008028 34.7337873,14.065225 34.5167201,14.065225 L27.7935377,14.065225 C27.4915403,14.0648181 27.3781596,13.8391444 27.4837428,13.5715513 C28.3652885,11.1418462 31.0754673,8.9044419 33.8277952,10.3097638 C35.0924751,10.989837 35.0661319,12.5255978 34.9175568,13.7044322 Z M25.2681821,9.3488703 C24.1166722,10.7368953 23.4092017,12.4551893 22.9782285,14.2428743 C22.4709656,16.3516712 21.9919426,19.1340294 22.7388223,21.2326516 C23.7230008,23.9993409 26.6080979,25.3863485 29.5469349,25.3863485 L35.8009993,25.3863485 C36.2104765,25.3863485 36.5613667,25.0341023 36.5613667,24.6442099 C36.5613667,22.8890837 35.1559093,21.679115 33.4143138,21.679115 L30.7315317,21.679115 C29.7844444,21.679115 28.7248192,21.651847 27.9098689,21.2812864 C26.5280148,20.6504585 26.4262251,19.1385063 26.602197,17.8607744 C26.6295939,17.6324554 26.8104129,17.4759694 27.0538233,17.4759694 L37.4370116,17.4759694 C38.1594449,17.4623353 38.6011662,16.9780223 38.7790348,16.2912338 C38.9931516,15.439616 39.1347721,14.5709049 39.2209668,13.6979204 C39.5071583,10.8241938 38.4018015,7.8407845 35.4248197,6.7014278 C31.9239261,5.3982594 27.5863755,6.5526745 25.2681821,9.3488703 Z M51.9265634,6.4041247 L44.4497574,6.4041247 C43.5096246,6.4002584 43.0940358,7.0099231 42.959159,7.798051 C42.0238734,13.2050606 41.044542,18.6053549 40.0222187,23.9958816 C39.8932429,24.6904028 40.420948,25.3863485 41.1638236,25.3863485 L43.0150064,25.3863485 C43.7890723,25.3863485 44.1974958,24.6651697 44.312984,24.041464 L46.7601533,10.5606705 C46.8001948,10.3425261 46.9468732,10.2098488 47.1843827,10.2098488 L51.3086595,10.2098488 C53.1891359,10.2098488 53.5273813,11.376677 53.2498304,12.9246474 L51.2580807,24.0032073 C51.1288941,24.7138045 51.6547026,25.3863485 52.3916773,25.3863485 L54.2350626,25.3863485 C55.0051243,25.3863485 55.4097544,24.6665941 55.5241889,24.0479757 L57.342917,14.2638341 C57.7222577,12.2793714 57.6948609,10.0112397 56.3627426,8.3318129 C55.3315681,7.0461448 53.6289604,6.4041247 51.9265634,6.4041247 Z M132.688629,2.9797464 L133.895564,2.9797464 L133.895564,6.3601703 L134.412522,6.3601703 L134.412522,2.9797464 L135.623462,2.9797464 L135.623462,2.5633999 L132.688629,2.5633999 L132.688629,2.9797464 Z M139.752796,2.5633999 L139.100962,2.5633999 L137.974953,5.6786726 L136.886245,2.5633999 L136.234411,2.5633999 L135.95981,6.3601703 L136.447474,6.3601703 L136.628082,3.0530038 L137.737443,6.3371756 L138.127321,6.3371756 L139.32372,3.0530038 L139.495898,6.3601703 L140,6.3601703 L139.752796,2.5633999 Z" id="GeneXus"></path>
        </g>
    </g>
</svg>